<?xml version="1.0" encoding="utf-8"?>
<!-- Generator: Adobe Illustrator 22.0.0, SVG Export Plug-In . SVG Version: 6.00 Build 0)  -->
<svg version="1.1" id="Layer_1" xmlns="http://www.w3.org/2000/svg" xmlns:xlink="http://www.w3.org/1999/xlink" x="0px" y="0px"
	 viewBox="0 0 1500 1500" style="enable-background:new 0 0 1500 1500;" xml:space="preserve">
<style type="text/css">
	.st0{fill:#E6E7E8;}
</style>
<path class="st0" d="M1033.4,1292.3c-30.1-15.3-56.8-26-76.9-30.1c-5.3-1.1-9.7-0.5-13.3,0.6c-2.2,0.7-4.5,1.2-6.8,1.3
	c-4.7-1.1-9.5-2.1-14.3-3c-4.3-2.3-7.9-5.7-10.4-10.2c-3.4-6.3-5.6-14.4-5.6-24.6v-31.8c119.5-79.2,241.4-222.5,241.6-344.6
	c0,0,0,0,0,0c59.5,0,107.7-55.9,107.7-124.9c0-64.3-42.1-116.7-96-123.5c2.7-40.4,3.8-25.1-0.3-71C1144.4,317.3,966.8,149,750,149
	c-222.8,0-404.1,177.7-409.9,399.1c-2.5,40.4-1.4,18.2,1,53.4c-54.1,6.7-96.4,59.1-96.4,123.5c0,69,48.2,124.9,107.7,124.9
	c0,0,0,0,0,0c0.1,145.2,113.5,281.2,239,352.8v23.6c0,11.6-2.8,20.3-7.1,27c-2.2,3.5-5.2,6.2-8.6,8.2c-5.3,1.1-10.6,2.2-15.8,3.4
	c-1.7-0.2-3.4-0.5-5.1-1c-4.7-1.4-9.8-1.4-14.6,0.2c-14.6,4.8-32.6,11.8-53,20.9C273.9,1355.6,126,1509.3,126,1687.5
	c0,244.9,279.4,443.5,624,443.5s624-198.6,624-443.5C1374,1515.1,1235.6,1365.6,1033.4,1292.3z"/>
</svg>
